Coordinates
version=1
nRows=8
nColumns=34
inDegrees=yes

Units are S.I. units (second, meters, Newtons, ...)
If the header above contains a line with 'inDegrees', this indicates whether rotational values are in degrees (yes) or radians (no).

endheader
time	pelvis_tilt	pelvis_list	pelvis_rotation	pelvis_tx	pelvis_ty	pelvis_tz	hip_flexion_r	hip_adduction_r	hip_rotation_r	knee_angle_r	ankle_angle_r	subtalar_angle_r	mtp_angle_r	hip_flexion_l	hip_adduction_l	hip_rotation_l	knee_angle_l	ankle_angle_l	subtalar_angle_l	mtp_angle_l	lumbar_extension	lumbar_bending	lumbar_rotation	arm_flex_r	arm_add_r	arm_rot_r	elbow_flex_r	pro_sup_r	arm_flex_l	arm_add_l	arm_rot_l	elbow_flex_l	pro_sup_l
      5.48333330	    -18.43618019	      2.42303595	    -10.58655593	      0.23270326	      0.63664881	     -0.04624168	     66.54432984	     -7.39587701	     -1.60455678	     74.21647571	     23.19702042	    -19.54653570	      0.00000000	     64.84937207	    -12.12536949	     -1.32634009	     75.85087460	     31.34768056	     -5.07576235	      0.00000000	    -32.95497997	     -3.95943609	     -1.35806781	     85.67498977	     16.83585151	     75.18393213	    126.97101713	    100.83636225	     72.18353540	      7.52436519	     71.99778737	    132.08942459	     94.87545862
      5.50000000	    -18.85021217	      2.63453686	    -10.84893710	      0.22875136	      0.63412750	     -0.04563493	     67.98424022	     -7.09325575	     -1.31454311	     75.01972775	     23.10328714	    -19.61265370	      0.00000000	     66.21184608	    -12.35716583	     -1.30471440	     76.73872614	     31.28360238	     -5.10381097	      0.00000000	    -33.76843648	     -4.37573588	     -1.41654532	     86.71083903	     16.94401957	     74.91265438	    126.97429710	    100.75676573	     72.86446973	      7.65476060	     71.61601997	    132.10693497	     95.08131834
      5.51666670	    -19.26378546	      2.84892113	    -11.09062381	      0.22416491	      0.62840469	     -0.04585331	     69.57997704	     -6.83377586	     -1.00937719	     75.87221952	     23.01822408	    -19.65994000	      0.00000000	     67.65790127	    -12.51643096	     -1.21394217	     77.67711577	     31.31297443	     -5.13127007	      0.00000000	    -34.41979198	     -4.73741305	     -1.48895310	     87.73027936	     17.16280946	     74.83383331	    127.01125753	    100.67965816	     73.85952684	      7.54103099	     71.19357477	    132.00888106	     95.26803440
      5.53333330	    -19.75699786	      3.03687187	    -11.21971182	      0.22505535	      0.62505208	     -0.04594795	     70.88196045	     -6.67240625	     -0.75611662	     76.65429432	     22.84754582	    -19.65186747	      0.00000000	     68.77756723	    -12.59163293	     -1.09343992	     78.38404989	     31.26219406	     -5.20821166	      0.00000000	    -34.93661107	     -4.97119261	     -1.54603155	     88.66936882	     16.92370736	     74.60721371	    126.92699489	    100.58356417	     74.21091664	      7.41784845	     71.22899851	    132.02871030	     95.46603981
      5.55000000	    -20.57124329	      3.35203491	    -11.40351151	      0.22138030	      0.62295924	     -0.04646827	     72.45982038	     -6.43565248	     -0.40175684	     76.99745860	     22.39036878	    -19.83575094	      0.00000000	     70.17642528	    -12.51702619	     -1.00816113	     78.85316832	     30.98841339	     -5.53010010	      0.00000000	    -35.14461553	     -5.27110489	     -1.59278309	     88.98606198	     16.96154856	     74.62903517	    127.10095298	    100.28521466	     74.53733492	      7.31086068	     71.58384571	    132.18979318	     96.04029017
      5.56666670	    -20.99922971	      3.41644549	    -11.65239969	      0.22500467	      0.61751842	     -0.04599165	     73.33254988	     -6.31957013	     -0.38567488	     77.68061268	     22.19992065	    -19.86241222	      0.00000000	     70.94641877	    -12.59662298	     -0.67630059	     79.51477525	     31.24899374	     -5.81268240	      0.00000000	    -35.49029208	     -5.41966915	     -1.68417523	     89.09451449	     16.89787367	     74.94835437	    127.23899802	    100.15398370	     74.63680340	      7.07875424	     72.00628274	    132.07600065	     96.34592539
      5.58333330	    -21.35448451	      3.52756220	    -11.80829231	      0.22133559	      0.61500836	     -0.04649384	     74.06082755	     -6.22186329	     -0.23924099	     78.08440135	     22.14360667	    -19.93620302	      0.00000000	     71.85840309	    -12.60475445	     -0.54127871	     80.26094023	     31.07178625	     -6.02537513	      0.00000000	    -35.96441609	     -5.54283382	     -1.69357405	     89.30422874	     16.71302171	     75.07176706	    127.36506855	    100.04600802	     75.12445881	      6.93165532	     72.09419322	    132.12138063	     96.56920979
      5.60000000	    -21.66275537	      3.59031204	    -11.85632035	      0.22185246	      0.61128066	     -0.04559175	     74.87730346	     -6.11415238	     -0.09626861	     78.76165458	     22.19869365	    -20.13286097	      0.00000000	     72.69144170	    -12.55385930	     -0.26818586	     80.90562597	     30.98121020	     -6.44561862	      0.00000000	    -36.29156173	     -5.70326125	     -1.76105192	     89.09995483	     16.81055682	     75.39184135	    127.74426817	     99.92935049	     75.48425919	      6.80618497	     72.02537178	    132.42671313	     96.82487135
